<?xml version="1.0" standalone="no"?><!DOCTYPE svg PUBLIC "-//W3C//DTD SVG 1.1//EN" "http://www.w3.org/Graphics/SVG/1.1/DTD/svg11.dtd"><svg t="1583758707963" class="icon" viewBox="0 0 1024 1024" version="1.1" xmlns="http://www.w3.org/2000/svg" p-id="3835" xmlns:xlink="http://www.w3.org/1999/xlink" width="32" height="32"><defs><style type="text/css"></style></defs><path d="M512 816.065306c-54.857143 0-106.057143-21.420408-144.718367-60.081633-8.359184-8.359184-8.359184-21.420408 0-29.779591 8.359184-8.359184 21.420408-8.359184 29.779591 0 30.82449 30.82449 71.57551 47.542857 115.461225 47.542857s84.636735-16.718367 115.461224-47.542857c8.359184-8.359184 21.420408-8.359184 29.779592 0 8.359184 8.359184 8.359184 21.420408 0 29.779591-39.706122 38.661224-90.906122 60.081633-145.763265 60.081633z" p-id="3836"></path><path d="M512 920.555102c-140.016327 0-265.926531-85.159184-318.693878-213.159184-54.334694 3.134694-99.265306-40.75102-99.265306-94.040816 0-46.497959 33.959184-85.159184 78.367347-92.995918 21.942857-132.702041 121.730612-242.938776 252.865306-276.89796 10.971429-3.134694 22.465306 3.657143 25.6 15.151021 3.134694 10.971429-3.657143 22.465306-15.15102 25.6-120.163265 31.346939-210.546939 135.314286-224.130612 258.612245-1.044898 10.971429-10.44898 18.808163-21.420408 18.285714h-1.567347c-28.734694 0-52.244898 23.510204-52.244898 52.767347s23.510204 52.767347 52.767347 52.767347c4.179592 0 8.881633-0.522449 13.061224-1.567347 10.44898-2.612245 21.420408 3.134694 25.077551 13.061225 42.840816 120.685714 157.257143 201.665306 285.257143 201.665306s242.938776-80.979592 285.257143-201.665306c3.657143-10.44898 14.628571-16.195918 25.077551-13.061225 4.702041 1.044898 8.881633 1.567347 13.061224 1.567347 29.257143 0 52.767347-23.510204 52.767347-52.767347s-23.510204-52.767347-52.767347-52.767347h-1.567347c-10.971429 0-20.37551-7.836735-21.420408-18.285714-14.106122-123.297959-103.967347-227.265306-224.130612-258.612245-10.971429-3.134694-17.763265-14.106122-15.15102-25.6s14.106122-17.763265 25.6-15.151021c131.134694 33.959184 230.922449 144.195918 252.865306 276.89796 44.408163 7.836735 78.367347 46.497959 78.367347 92.995918 0 52.244898-42.318367 94.563265-94.563266 94.563265h-4.70204c-53.289796 128-179.2 212.636735-319.216327 212.636735z" p-id="3837"></path><path d="M383.477551 545.959184m-36.571429 0a36.571429 36.571429 0 1 0 73.142858 0 36.571429 36.571429 0 1 0-73.142858 0Z" p-id="3838"></path><path d="M642.089796 545.959184m-36.571429 0a36.571429 36.571429 0 1 0 73.142857 0 36.571429 36.571429 0 1 0-73.142857 0Z" p-id="3839"></path><path d="M512 402.285714c-56.42449 0-102.4-43.885714-102.4-98.220408 0-71.57551 41.273469-141.583673 115.983673-196.963265 6.269388-4.702041 14.628571-5.22449 21.942858-2.089796 6.791837 3.657143 11.493878 10.971429 11.493877 18.808163 0 48.587755 13.061224 69.485714 27.167347 91.428572 13.583673 20.897959 28.734694 44.930612 28.734694 88.816326C614.4 358.4 568.42449 402.285714 512 402.285714z m8.359184-236.669387c-33.436735 31.346939-68.963265 78.889796-68.963266 138.448979 0 31.346939 27.167347 56.42449 60.604082 56.42449 33.436735 0 60.604082-25.6 60.604082-56.42449 0-31.869388-9.926531-47.020408-21.942858-65.828571-10.971429-17.763265-24.032653-38.138776-30.30204-72.620408z" p-id="3840"></path></svg>