<?xml version="1.0" standalone="no"?><!DOCTYPE svg PUBLIC "-//W3C//DTD SVG 1.1//EN" "http://www.w3.org/Graphics/SVG/1.1/DTD/svg11.dtd"><svg t="1583741838791" class="icon" viewBox="0 0 1024 1024" version="1.1" xmlns="http://www.w3.org/2000/svg" p-id="15910" xmlns:xlink="http://www.w3.org/1999/xlink" width="32" height="32"><defs><style type="text/css"></style></defs><path d="M530.048051 679.040411l-42.22059 0c-14.034645 0-25.412786 11.379165-25.412786 25.412786 0 14.034645 11.379165 25.406646 25.412786 25.406646l42.22059 0c14.034645 0 25.412786-11.373025 25.412786-25.406646C555.461861 690.419576 544.082696 679.040411 530.048051 679.040411z" p-id="15911"></path><path d="M732.99423 106.876146C717.085912 100.175537 512.756223 17.309224 332.12119 103.588263c-107.888196 51.5337-183.321212 151.499459-224.214575 297.116955-56.583716 201.494107-59.078537 329.280492-8.084119 414.305981 53.03489 88.424912 155.848511 117.300566 274.842649 143.482879 2.75474 0.607844 5.509481 0.905626 8.227382 0.905626 3.569292 0 7.02602-0.623193 10.366092-1.577938 2.362814 0.725524 4.821819 1.231037 7.42204 1.231037 14.034645 0 25.412786-11.379165 25.412786-25.412786l0-31.087019c26.66429 10.181897 54.423517 15.873526 82.847893 15.873526 41.522696 0 81.678254-12.078083 119.019721-32.877805l0 48.091298c0 14.034645 11.379165 25.412786 25.412786 25.412786 3.803629 0 7.378038-0.893346 10.617825-2.391467 5.443989 1.099031 11.175527 1.14815 16.923438-0.325411 104.742553-26.728758 185.933713-100.31266 234.811934-212.798571 35.793204-82.382289 41.681308-156.798139 41.879829-159.459758C989.627145 215.69555 752.439094 114.520243 732.99423 106.876146zM165.210739 775.798105c-30.65416-51.106981-33.761941-132.364657-9.188266-251.632017 1.12973 0.155543 2.2656 0.291642 3.423983 0.291642 1.904373 0 3.840468-0.216941 5.776563-0.670266 0.461511-0.107447 1.592264-0.375553 3.14462-0.756223 0.019443 0.376577-0.041956 0.737804-0.005117 1.116427 0.008186 0.083911 0.021489 0.167822 0.029676 0.251733-0.648776 5.891174 0.097214 11.598152 1.980097 16.874319 17.987676 130.693598 98.514711 268.607644 204.895577 335.647503l0 3.567245C262.241656 854.792227 197.893092 830.309626 165.210739 775.798105zM227.185232 569.093323c9.467629 0.655939 21.144576 1.159406 34.714639 1.159406 90.159416 0 263.59549-22.246677 423.804309-169.165818 17.863856 44.725644 51.41909 99.402941 112.535029 124.30919-17.904789 159.826102-146.245805 342.202802-289.298895 342.202802C379.1329 867.598904 261.07611 716.561979 227.185232 569.093323zM881.615129 577.939805c-0.181125 2.457981-20.020986 239.548818-202.828498 299.594379l0-27.02961c98.671277-81.658811 167.93478-223.497237 172.180478-349.933881 4.916986-18.479887-4.5312-38.096666-22.766516-45.229111-69.854974-27.342742-85.688591-130.987287-85.912695-132.49564-0.084934-0.605797-0.315178-1.14815-0.427742-1.743714-0.251733-1.340531-0.575098-2.651386-0.970094-3.963265-0.343831-1.133823-0.720408-2.235924-1.161453-3.318582-0.478907-1.180895-1.028423-2.319835-1.629103-3.454682-0.585331-1.103124-1.201361-2.166339-1.88493-3.196809-0.659009-0.994654-1.372254-1.947352-2.133593-2.88777-0.858554-1.061169-1.759063-2.060939-2.720971-3.019777-0.428765-0.427742-0.748037-0.923022-1.201361-1.334391-0.406253-0.369414-0.876973-0.608867-1.294482-0.956791-1.073448-0.895393-2.190899-1.705851-3.355421-2.480494-0.937348-0.621147-1.870604-1.221828-2.845815-1.7519-1.202385-0.655939-2.442632-1.206478-3.714602-1.730411-1.00284-0.411369-1.995447-0.814552-3.021823-1.13587-1.324158-0.418532-2.674922-0.718361-4.050246-0.988514-1.060145-0.207731-2.108011-0.403183-3.177366-0.51984-1.299599-0.141216-2.605338-0.181125-3.932566-0.184195-1.270946-0.007163-2.52552 0.032746-3.791349 0.152473-0.551562 0.054235-1.085728-0.013303-1.639337 0.065492-0.618077 0.084934-1.172709 0.317225-1.779529 0.430812-1.344624 0.25071-2.661619 0.565888-3.976568 0.961908-1.14508 0.343831-2.254344 0.727571-3.346211 1.170662-1.165546 0.472767-2.294252 1.007957-3.416819 1.600451-1.12052 0.591471-2.198062 1.219781-3.244904 1.913583-0.98749 0.653893-1.933025 1.355881-2.867304 2.109034-1.058099 0.854461-2.053776 1.752924-3.010567 2.711761-0.443092 0.444115-0.955768 0.775666-1.382487 1.24434C522.68434 471.804533 345.935824 494.288616 261.672698 494.107491c70.668503-25.756617 165.879981-69.214385 235.480152-134.208655 10.255575-9.579169 10.80816-25.66145 1.228991-35.923164-9.585309-10.249435-25.66145-10.82044-35.923164-1.228991-94.209662 87.979774-246.656703 134.760217-294.143227 147.740856 3.961218-15.864316 8.203846-32.127721 12.990872-49.171909 34.632775-123.33091 96.29209-207.015867 183.253674-248.735038 152.541185-73.16844 337.25307 3.877307 339.045903 4.640694 0.533143 0.229221 1.073448 0.447185 1.61887 0.651846C707.265242 178.642656 909.379473 258.530125 881.615129 577.939805z" p-id="15912"></path></svg>