<?xml version="1.0" standalone="no"?><!DOCTYPE svg PUBLIC "-//W3C//DTD SVG 1.1//EN" "http://www.w3.org/Graphics/SVG/1.1/DTD/svg11.dtd"><svg t="1583905931244" class="icon" viewBox="0 0 1116 1024" version="1.1" xmlns="http://www.w3.org/2000/svg" p-id="2927" xmlns:xlink="http://www.w3.org/1999/xlink" width="34.875" height="32"><defs><style type="text/css"></style></defs><path d="M731.683485 292.581809h-24.349571c-34.23134 0-62.146323-27.901465-62.146323-62.146324V150.007551C645.187591 115.769452 673.102574 87.867987 707.333914 87.867987h24.349571c34.249927 0 62.144634 27.901465 62.144634 62.139564v80.434693c-0.006759 34.23134-27.894706 62.139564-62.144634 62.139565z m-24.349571-154.145796c-6.245386 0-11.571538 5.326152-11.571538 11.571538v80.434693c0 6.238627 5.326152 11.571538 11.571538 11.571538h24.349571c6.257215 0 11.583366-5.332911 11.583366-11.571538V150.007551c0-6.252145-5.326152-11.571538-11.583366-11.571538h-24.349571zM422.594323 292.581809h-24.35633c-34.238099 0-62.139564-27.901465-62.139564-62.146324V150.007551C336.098429 115.769452 363.993135 87.867987 398.237993 87.867987h24.35633c34.238099 0 62.137875 27.901465 62.137875 62.139564v80.434693c-0.006759 34.23134-27.899776 62.139564-62.137875 62.139565z m-24.35633-154.145796c-6.250455 0-11.571538 5.326152-11.571538 11.571538v80.434693c0 6.238627 5.321083 11.571538 11.571538 11.571538h24.35633c6.250455 0 11.571538-5.332911 11.571538-11.571538V150.007551c0-6.252145-5.321083-11.571538-11.571538-11.571538h-24.35633z m0 0" fill="#666666" p-id="2928"></path><path d="M641.644145 929.075538H256.322746c-55.610297 0-100.864-45.246944-100.864-100.857241V265.80235c0-55.617056 45.253703-100.956937 100.864-100.956937h104.965069c13.992977 0 25.280634 11.287657 25.280634 25.287392 0 13.992977-11.287657 25.280634-25.280634 25.280634h-104.965069c-27.72235 0-50.295974 22.587142-50.295974 50.295974v562.409188c0 27.730799 22.573624 50.304422 50.295974 50.304422H641.53769a25.284013 25.284013 0 0 1 17.894653 7.392739 25.285703 25.285703 0 0 1 7.399499 17.887895 25.189386 25.189386 0 0 1-7.306561 17.933518 25.219802 25.219802 0 0 1-17.881136 7.438363z" fill="#666666" p-id="2929"></path><path d="M532.672634 929.075538h-70.052753c-13.992977 0-25.292462-11.285967-25.292462-25.278944 0-13.987908 11.299485-25.280634 25.292462-25.280634h70.052753a25.248528 25.248528 0 0 1 25.287392 25.280634 25.245149 25.245149 0 0 1-25.287392 25.278944zM879.386191 929.075538H606.57468a25.23332 25.23332 0 0 1-25.273875-25.278944 25.238389 25.238389 0 0 1 25.273875-25.280634h272.811511c27.708832 0 50.309492-22.582073 50.309492-50.297663v-77.056845a25.248528 25.248528 0 0 1 7.392739-17.892964 25.214733 25.214733 0 0 1 17.887895-7.392739 25.253597 25.253597 0 0 1 25.280633 25.285703v77.056845c0 55.610297-45.253703 100.857241-100.870759 100.857241zM954.976317 590.185611a25.228251 25.228251 0 0 1-25.280634-25.273875V265.80235c0-27.715591-22.60066-50.297663-50.309492-50.297664H768.540726a25.267116 25.267116 0 0 1-17.887894-7.397808 25.272185 25.272185 0 0 1-7.385981-17.887895 25.278944 25.278944 0 0 1 7.385981-17.887894 25.253597 25.253597 0 0 1 17.887894-7.392739h110.745769c55.617056 0 100.970455 45.246944 100.970455 100.950178v299.109386a25.224871 25.224871 0 0 1-7.424844 17.827063 25.214733 25.214733 0 0 1-17.855789 7.360634zM670.388805 215.504686H459.439736a25.240079 25.240079 0 0 1-17.882825-7.397808 25.207974 25.207974 0 0 1-7.39105-17.887895 25.255287 25.255287 0 0 1 25.273875-25.280633h210.955828a25.248528 25.248528 0 0 1 17.887895 7.392739 25.219802 25.219802 0 0 1 7.392739 17.887894c0.086178 13.999736-11.292726 25.285703-25.287393 25.285703zM510.923617 697.960766c-6.43464 0-12.963908-2.428198-17.913241-7.358944l-122.317307-122.324066a25.23501 25.23501 0 0 1 0-35.741994 25.211353 25.211353 0 0 1 35.730165 0l122.322377 122.322377a25.265426 25.265426 0 0 1 7.419775 17.874376c0 6.706693-2.673215 13.136264-7.419775 17.869307a24.978165 24.978165 0 0 1-17.821994 7.358944z m0 0" fill="#666666" p-id="2930"></path><path d="M516.812462 694.12668a25.30598 25.30598 0 0 1-16.245439-44.69439l255.849611-213.93996a25.280634 25.280634 0 0 1 24.924092-4.349465 25.299221 25.299221 0 0 1 7.53637 43.168528L533.049452 688.251353a24.861571 24.861571 0 0 1-16.23699 5.875327z m0 0" fill="#666666" p-id="2931"></path></svg>