<?xml version="1.0" standalone="no"?><!DOCTYPE svg PUBLIC "-//W3C//DTD SVG 1.1//EN" "http://www.w3.org/Graphics/SVG/1.1/DTD/svg11.dtd"><svg t="1583742328683" class="icon" viewBox="0 0 1024 1024" version="1.1" xmlns="http://www.w3.org/2000/svg" p-id="28190" xmlns:xlink="http://www.w3.org/1999/xlink" width="32" height="32"><defs><style type="text/css"></style></defs><path d="M876.74368 218.785935c-37.793768-32.534997-104.3363-67.992557-206.570729-52.566216-45.483914 6.895037-86.503143 23.606651-122.242112 49.480948-46.792723-42.701544-109.596094-74.583672-187.54542-74.583672-110.975511 0-201.944362 50.462299-256.076236 142.109602-54.832839 92.791359-70.773903 252.592902 64.767096 397.576971C354.962919 879.614565 552.371988 881.905748 560.693514 881.905748c20.101827 0 36.368302-16.266475 36.462446-36.368302 0.093121-20.146852-16.197914-36.555567-36.323277-36.741809-1.728364-0.022513-175.297468-3.482311-338.349031-177.916109-107.937315-115.463732-97.232508-239.410672-55.230905-310.48952 51.841715-87.742367 133.624347-106.160855 193.132672-106.160855 46.372144 0 85.5924 16.175401 117.357871 39.336914l0.302899-0.490164c0 0 57.543577 36.859489 82.671884 102.5844 6.846942 14.794961 11.497868 28.42233 13.297864 38.963407 6.031367 35.854603 1.029446 68.530816-13.088086 85.241406-6.637164 7.853875-14.818497 11.522428-25.663496 11.522428-13.042037 0-21.947871-11.007705-26.085098-17.552771-12.387122-19.563568-18.46556-55.464219 1.497097-97.583502 4.721535-9.979282 9.745968-19.422352 15.075347-28.327162-12.131295-17.320481-30.549783-38.823214-53.431933-51.468209-9.980305 15.098883-19.423375 30.993898-27.696806 48.477085-27.346835 57.661258-26.294876 122.030287 2.75781 167.982876 20.73116 32.767288 52.775994 51.561329 87.883583 51.561329 32.160467 0 61.096497-13.276375 81.478709-37.421284 28.467355-33.704636 39.173185-86.410022 29.356608-144.633075-5.258771-31.039947-21.971407-72.082712-49.691749-111.465674 25.054629-16.829294 53.315276-27.697829 84.704171-32.419364 59.181891-9.021467 110.391203 3.343141 147.975193 35.667338 35.831067 30.783097 57.193607 77.809133 57.193607 125.771495 0 201.756073-259.346723 298.124911-270.38001 302.120922-18.97926 6.872524-28.79686 27.836999-21.924335 46.838771 6.872524 18.955724 27.860535 28.843932 46.816259 21.900799 118.339222-42.913369 318.600245-169.31522 318.600245-370.861516C959.393052 331.00067 928.492274 263.264962 876.74368 218.785935z" p-id="28191"></path></svg>