<?xml version="1.0" standalone="no"?><!DOCTYPE svg PUBLIC "-//W3C//DTD SVG 1.1//EN" "http://www.w3.org/Graphics/SVG/1.1/DTD/svg11.dtd"><svg t="1583741935696" class="icon" viewBox="0 0 1024 1024" version="1.1" xmlns="http://www.w3.org/2000/svg" p-id="17287" xmlns:xlink="http://www.w3.org/1999/xlink" width="32" height="32"><defs><style type="text/css"></style></defs><path d="M875.319238 311.847447c0-14.709003-11.912307-26.641777-26.622334-26.641777L738.666928 285.205671C706.929086 156.447145 617.118618 63.261812 511.357875 63.261812c-105.783255 0-195.5927 93.185332-227.331565 221.944881L173.996334 285.206694c-14.709003 0-26.621311 11.932774-26.621311 26.641777 0 14.688537 11.912307 26.622334 26.621311 26.622334l100.686167 0c-1.802042 15.972786-3.024893 32.194236-3.024893 48.830125 0 50.509371 8.846482 98.179067 24.156166 140.835585C219.761658 546.284851 162.995793 614.631472 162.995793 696.133717l0 237.129722c0 14.710027 11.912307 26.6428 26.621311 26.6428L833.077158 959.90624c14.710027 0 26.641777-11.932774 26.641777-26.6428L859.718935 696.133717c0-81.502245-56.786331-149.848866-132.838448-167.997202 15.309684-42.656519 24.156166-90.327238 24.156166-140.835585 0-16.635889-1.222851-32.857339-3.025916-48.830125l100.68719 0C863.40693 338.469781 875.319238 326.537008 875.319238 311.847447zM697.772542 387.299907c0 49.596582-9.365298 95.962585-25.462928 135.967718-2.816139 6.982018-6.049786 13.528108-9.238408 20.116153-21.464871-68.863391-77.835739-113.199155-151.71333-113.199155-73.89908 0-130.270972 44.335764-151.733796 113.199155-3.190669-6.588045-6.42227-13.134135-9.239432-20.116153-16.07614-40.005133-25.460882-86.371136-25.460882-135.967718 0-16.697287 1.201361-32.960693 3.190669-48.830125l366.468462 0C696.591647 354.339214 697.772542 370.602619 697.772542 387.299907zM619.356588 607.752808c0 60.204174-66.37778 149.308561-107.998713 197.187011-41.621956-47.87845-108.020202-136.982838-108.020202-197.187011 0-75.493391 42.407855-124.282584 108.020202-124.282584C576.969199 483.470223 619.356588 532.259416 619.356588 607.752808zM511.357875 116.525923c77.917604 0 144.731312 69.858044 172.555008 168.679747L338.781378 285.205671C366.606097 186.383968 433.418782 116.525923 511.357875 116.525923zM806.454824 696.133717 806.454824 906.642129 216.259904 906.642129 216.259904 696.133717c0-59.873646 44.252877-109.449761 101.743242-118.108978 9.882068 18.2302 21.151739 34.929534 33.561373 49.990554 14.233166 101.370759 126.997416 220.86734 140.629901 234.975663 5.01113 5.200442 11.93175 8.141424 19.163455 8.141424 7.229658 0 14.128789-2.940982 19.142989-8.141424 13.631462-14.108323 126.416178-133.626393 140.649344-234.996129 12.387122-15.040555 23.680329-31.739888 33.540907-49.970088C762.181481 586.683956 806.454824 636.260072 806.454824 696.133717z" p-id="17288"></path><path d="M392.026046 430.661484c16.346293 0 29.605272-13.239536 29.605272-29.605272 0-16.325827-13.260002-29.584806-29.605272-29.584806-16.346293 0-29.584806 13.258978-29.584806 29.584806C362.441241 417.422971 375.679753 430.661484 392.026046 430.661484z" p-id="17289"></path><path d="M630.668215 430.661484c16.347317 0 29.606295-13.239536 29.606295-29.605272 0-16.325827-13.258978-29.584806-29.606295-29.584806-16.32378 0-29.583782 13.258978-29.583782 29.584806C601.084433 417.422971 614.344434 430.661484 630.668215 430.661484z" p-id="17290"></path><path d="M484.715075 573.73504l0 11.808954c0 14.709003 11.912307 26.6428 26.6428 26.6428 14.709003 0 26.622334-11.933797 26.622334-26.6428l0-11.808954c0-14.709003-11.913331-26.641777-26.622334-26.641777C496.626359 547.093263 484.715075 559.026036 484.715075 573.73504z" p-id="17291"></path></svg>