<?xml version="1.0" standalone="no"?><!DOCTYPE svg PUBLIC "-//W3C//DTD SVG 1.1//EN" "http://www.w3.org/Graphics/SVG/1.1/DTD/svg11.dtd"><svg t="1584108150314" class="icon" viewBox="0 0 1024 1024" version="1.1" xmlns="http://www.w3.org/2000/svg" p-id="1226" xmlns:xlink="http://www.w3.org/1999/xlink" width="200" height="200"><defs><style type="text/css"></style></defs><path d="M538.7264 236.70784c-75.42784 0-143.93344 21.23776-143.93344 21.23776s-76.1856-77.312-176.08704-45.44512c28.54912 28.672 4.77184 61.2352 24.1664 108.35968a467.21024 467.21024 0 0 0-57.856 62.68928c-31.62112 41.73824-8.6016 105.63584-32.39936 139.10016-23.77728 33.44384-49.84832 9.9328-65.69984 30.65856-7.5776 9.9328-9.07264 93.06112 14.04928 124.49792 37.82656 34.18112 60.35456-3.25632 101.94944 42.7008a363.19232 363.19232 0 0 0 74.46528 70.8608c7.3728 7.3728-21.05344 23.40864-8.0896 67.9936 8.192 16.73216 78.52032 19.0464 99.86048 9.56416 12.67712-10.5472 0.06144-22.28224 8.72448-24.576 5.12 1.88416 10.3424 3.74784 15.62624 5.44768 8.86784 6.84032-10.91584 50.87232 23.79776 49.9712 10.91584 2.10944 37.35552 1.35168 64.7168 0.36864 14.92992-4.58752 10.56768-29.14304 14.9504-28.73344a496.2304 496.2304 0 0 0 48.2304 2.33472c45.8752 0 73.09312-12.63616 112.5376-24.064 24.53504-3.82976-10.0352 31.47776 10.83392 36.1472 7.33184-3.3792 79.6672 10.4448 94.12608-7.2704 24.28928-20.6848 0.02048-84.93056 20.3776-94.6176C876.72832 723.5584 901.12 659.00544 901.12 553.7792c0-175.104-147.98848-317.09184-362.3936-317.09184zM266.11712 465.01888c-14.0288 0-25.3952-11.42784-25.3952-25.51808s11.3664-25.4976 25.3952-25.4976c14.00832 0 25.35424 11.40736 25.35424 25.4976 0 14.09024-11.34592 25.51808-25.35424 25.51808z m432.86528-48.7424c-84.54144-34.05824-164.90496-25.57952-164.90496-25.57952a25.41568 25.41568 0 0 1-25.37472-25.47712c0-14.09024 11.3664-25.4976 25.3952-25.4976 90.91072-4.25984 164.88448 25.4976 164.88448 25.4976 19.16928 5.55008 24.576 11.42784 24.576 25.47712 0 14.09024-10.5472 25.55904-24.576 25.55904z" p-id="1227"></path></svg>