<?xml version="1.0" standalone="no"?><!DOCTYPE svg PUBLIC "-//W3C//DTD SVG 1.1//EN" "http://www.w3.org/Graphics/SVG/1.1/DTD/svg11.dtd"><svg t="1583742372192" class="icon" viewBox="0 0 1024 1024" version="1.1" xmlns="http://www.w3.org/2000/svg" p-id="28737" xmlns:xlink="http://www.w3.org/1999/xlink" width="32" height="32"><defs><style type="text/css"></style></defs><path d="M554.1 489.6m-268.9 0a268.9 268.9 0 1 0 537.8 0 268.9 268.9 0 1 0-537.8 0Z" fill="#F3C9CA" p-id="28738"></path><path d="M513.614695 330.624199a23.5 23.5 0 1 0 40.703194-23.5 23.5 23.5 0 1 0-40.703194 23.5Z" fill="#000002" p-id="28739"></path><path d="M299.331563 454.349153a23.5 23.5 0 1 0 40.703194-23.5 23.5 23.5 0 1 0-40.703194 23.5Z" fill="#000002" p-id="28740"></path><path d="M469.8 454.5c-7.2 4.2-15.1 6.8-23.4 7.8-8 1-15.9 0.4-23.7-1.7-7.8-2.1-15-5.6-21.4-10.4-5.2-3.9-6.2-11.3-2.3-16.4 3.9-5.2 11.3-6.2 16.4-2.3 4 3 8.4 5.2 13.3 6.5 4.8 1.3 9.8 1.6 14.7 1 5.1-0.6 10-2.3 14.5-4.9 4.5-2.6 8.4-6 11.5-10.1 3-4 5.2-8.4 6.5-13.3 1.3-4.8 1.6-9.8 1-14.7-0.8-6.4 3.8-12.3 10.2-13.1 6.4-0.8 12.3 3.8 13.1 10.2 1 8 0.4 15.9-1.7 23.7-2.1 7.8-5.6 15-10.4 21.4-4.8 6.6-11 12.1-18.3 16.3z" fill="#000002" p-id="28741"></path><path d="M253 697.8c26.5-8 54.8-18.1 84.4-30.1l-12.4-3.3c-25.7-9.4-98.5-42.2-117.4-78-36.2-68.4-12.2-152.2 55.8-194.9 35.9-22.6 116.4-21.7 144.4-19.4l21.1 1.7 8.7-19.3c15.8-35 52.5-96.4 83.8-112 68.2-33.9 151.4-11.6 193.5 51.9 18.9 28.5 20.4 97.8 16.8 136.5l-0.6 2.1c15.8-13.3 30.5-26.5 43.8-39.4 6.4-6.2 12.4-12.2 18-18.2-1.4-37.7-7.8-83.7-28-114.2-28.3-42.7-71.5-73.6-121.5-87-50-13.4-102.9-8.2-148.7 14.6-47.3 23.5-85.7 89.3-102.8 122.5-11.7-0.3-27.6-0.4-45 0.6-50.4 2.8-89.3 12.5-115.4 28.9-45.2 28.4-78.1 71.6-92.6 121.8-14.8 51-9.2 105 15.6 152 14.8 28 45.3 54.7 90.6 79.2 2.7 1.2 5.3 2.6 7.9 4zM686 601.3l-31.6 118c-4.6 17.2-22.4 27.5-39.6 22.9L500 711.3c-28.3 14.5-56.3 27.8-83.5 39.7l182.8 49.1c24.6 6.6 49.6 2.6 70-9.3 20.5-11.8 36.4-31.4 43-56l50.8-189.7c-23.8 18.8-49.7 37.6-77.1 56.2z" fill="#000002" p-id="28742"></path><path d="M838.2 239c-22.7-0.5-50.1 3-81.7 10.3 2.9 3.8 5.7 7.7 8.4 11.8 9.4 14.2 15.9 29 20.3 43.4 19.1-3.7 35.9-5.6 49.7-5.6 23.8 0.1 29.3 5.9 29.5 6 0.1 0.2 2.3 7.9-9.5 28.6-11.6 20.4-32.5 45.5-60.5 72.6-60.8 58.9-149.6 123.3-250.1 181.4s-200.7 102.8-282.1 126c-37.5 10.7-69.7 16.2-93.1 16.1-24-0.1-29.5-6-29.5-6 0-0.1-2.4-7.7 9.5-28.6 7.3-12.8 18.3-27.4 32.3-43.3-9.8-10.3-19.1-22.6-26.8-37.3-2.5-4.8-4.9-9.6-7-14.6-23.2 24.6-40.7 47.4-52 68-18.6 33.8-21.3 62.6-7.9 85.7s39.7 35.2 78.2 36c29.3 0.6 66.4-5.3 110.2-17.6 86.5-24.3 192.5-71.3 298.3-132.4S774 510.1 838.2 447.3c32.5-31.8 56.2-60.9 70.3-86.6 18.6-33.8 21.3-62.6 7.9-85.7s-39.7-35.2-78.2-36z" fill="#000002" p-id="28743"></path></svg>