<?xml version="1.0" standalone="no"?><!DOCTYPE svg PUBLIC "-//W3C//DTD SVG 1.1//EN" "http://www.w3.org/Graphics/SVG/1.1/DTD/svg11.dtd"><svg t="1583742268981" class="icon" viewBox="0 0 1024 1024" version="1.1" xmlns="http://www.w3.org/2000/svg" p-id="25962" xmlns:xlink="http://www.w3.org/1999/xlink" width="32" height="32"><defs><style type="text/css"></style></defs><path d="M489.963571 1023.940004l-30.067856 0.044997c-85.482906-0.350975-170.890817-0.395972-256.312728-0.395972l-159.591623-0.015999 0-519.512964-41.504041-0.014999L2.473324 252.451003l198.132875 0c-27.624031-19.378619-48.620534-44.207848-60.746669-72.411838-16.338835-38.756237-16.918794-80.490262-1.633884-114.574832 11.63617-26.433116 35.549466-47.27763 63.952441-55.676031 15.072925-4.458682 30.692812-6.719521 46.421691-6.719521 24.584247 0 48.482544 5.649597 69.145071 16.338835 14.322979 6.932506 26.172134 17.194774 37.656316 27.120067 28.509968 27.394047 48.100571 60.729671 67.066219 92.966373l8.766375 14.827943c12.888081 22.050428 26.158135 44.771808 45.015791 61.890588 10.09528 9.834299 23.014359 15.300909 35.733453 15.300909l2.276838-0.062996c13.253055-0.166988 26.401118-6.245555 36.524396-16.68981 18.676669-17.743735 31.381763-39.596177 44.818805-62.730528 4.046712-6.978503 8.093423-13.941006 12.293124-20.76752 22.874369-39.031218 48.650532-79.52933 88.505691-105.381487 23.28934-14.932935 51.172352-22.797375 80.705247-22.797375 13.484039 0 26.967078 1.664881 40.068144 4.946647 26.357121 6.765518 47.996578 21.516466 60.974653 41.565037 18.416687 26.128137 24.601246 63.082503 16.735807 101.013799-7.344476 36.954366-30.555822 72.38184-63.660462 97.135075-2.046854 1.572888-4.154704 3.130777-6.337548 4.671667 14.566962 0.014999 198.147874 0.045997 198.147874 0.045997L1023.035569 504.104063c0 0-39.321197-0.030998-41.351052-0.044997-0.289979 97.502049-0.243983 195.002098-0.198986 292.504148 0.029998 71.847878 0.059996 143.693756-0.030998 215.541634l-0.013999 11.514179-324.58786-0.029998c-29.487898 0.333976-59.127785 0.410971-88.751673 0.410971L489.963571 1023.940004zM648.972235 664.781608c-0.013999 98.081008-0.029998 196.163016 0.046997 294.230025l267.872904-0.044997L916.892136 504.472037l-267.9189-0.029998L648.973235 664.781608zM376.504659 958.995634l0-25.016217c0.044997-143.188792 0.090994-286.363585-0.014999-429.554377l-267.873904 0.044997 0 454.4916 213.49578 0.015999L376.504659 958.995634zM584.349842 958.581664c0.029998-213.677767 0.029998-427.356534 0-641.0493l-143.189792 0c-0.031998 213.692766-0.031998 427.370533 0 641.0493L584.349842 958.581664zM958.443173 439.069699 958.443173 317.059397 648.990234 317.028399l-0.015999 122.025301 154.307 0L958.443173 439.069699zM376.535657 439.023702l-0.014999-121.995303-309.453939 0.044997 0 121.980304 53.690172 0L376.535657 439.023702zM650.440131 231.667485c12.217129 0 24.417259-0.045997 36.633388-0.289979 30.663814-1.191915 60.500687-9.086352 86.017868-22.798375 29.381905-15.773875 50.255417-39.70317 57.23292-65.64732 3.345761-13.04107 7.132492-37.916297-5.32762-56.607964-6.781517-10.933221-20.417544-15.131921-27.977006-16.68981-6.625528-1.236912-13.46804-1.878866-20.157563-1.878866-15.161919 0-29.303911 3.405757-40.878086 9.850298-19.270626 11.009215-36.084428 28.677956-54.42312 57.23392-8.796373 13.316051-16.996788 27.380048-24.921223 40.970079-10.903223 18.66067-22.065427 37.794306-35.123496 55.813021L650.440131 231.667485zM403.9907 231.636487c-12.979075-17.896724-24.064284-36.909369-34.893512-55.462046-7.283481-12.49111-14.826943-25.39519-22.736379-37.59532-11.483181-18.09571-25.746165-38.451259-44.986793-53.01922-14.093995-11.605173-32.450687-17.835729-52.04329-17.835729-1.922863 0-3.832727 0.061996-5.740591 0.183987-19.026644 0.763946-32.586677 5.787587-40.54311 14.904937-14.201988 16.950792-11.804158 41.79502-9.101351 55.079073 4.855654 23.867299 21.470469 46.772666 45.581751 62.83852 29.715882 19.911581 68.334129 30.876799 108.771246 30.876799l51.705314 0.029998L403.9907 231.636487 403.9907 231.636487z" p-id="25963"></path></svg>