<?xml version="1.0" standalone="no"?><!DOCTYPE svg PUBLIC "-//W3C//DTD SVG 1.1//EN" "http://www.w3.org/Graphics/SVG/1.1/DTD/svg11.dtd"><svg t="1583758766644" class="icon" viewBox="0 0 1024 1024" version="1.1" xmlns="http://www.w3.org/2000/svg" p-id="4800" xmlns:xlink="http://www.w3.org/1999/xlink" width="32" height="32"><defs><style type="text/css"></style></defs><path d="M832 96H192c-17.67 0-32 14.33-32 32v768c0 17.67 14.33 32 32 32h640c17.67 0 32-14.33 32-32V128c0-17.67-14.33-32-32-32z m-608 64h576v102.79C721.47 299.39 618.79 320 512 320s-209.47-20.61-288-57.21V160z m576 704H224V332.24C304.22 364.57 403.67 384 512 384s207.78-19.43 288-51.76V864z" p-id="4801"></path><path d="M438.62 457.38c-12.5-12.5-32.75-12.5-45.25 0s-12.5 32.75 0 45.25L466.75 576H416c-17.67 0-32 14.33-32 32s14.33 32 32 32h64v32h-64c-17.67 0-32 14.33-32 32s14.33 32 32 32h64v32c0 17.67 14.33 32 32 32s32-14.33 32-32v-32h64c17.67 0 32-14.33 32-32s-14.33-32-32-32h-64v-32h64c17.67 0 32-14.33 32-32s-14.33-32-32-32h-50.75l73.38-73.38c12.5-12.5 12.5-32.75 0-45.25s-32.75-12.5-45.25 0L512 530.75l-73.38-73.37z" p-id="4802"></path></svg>