<?xml version="1.0" standalone="no"?><!DOCTYPE svg PUBLIC "-//W3C//DTD SVG 1.1//EN" "http://www.w3.org/Graphics/SVG/1.1/DTD/svg11.dtd"><svg t="1581337019331" class="icon" viewBox="0 0 1024 1024" version="1.1" xmlns="http://www.w3.org/2000/svg" p-id="3025" xmlns:xlink="http://www.w3.org/1999/xlink" width="200" height="200"><defs><style type="text/css"></style></defs><path d="M110.933333 708.266667c-12.8 12.8-12.8 34.133333 0 46.933333 81.066667 93.866667 204.8 149.333333 337.066667 149.333333 132.266667 0 251.733333-55.466667 341.333333-157.866666 55.466667-64 85.333333-149.333333 85.333334-238.933334 0-89.6-29.866667-174.933333-81.066667-238.933333 0-4.266667-4.266667-4.266667-4.266667-8.533333-4.266667-4.266667-4.266667-12.8 0-17.066667l55.466667-59.733333c4.266667-4.266667 4.266667-12.8 0-17.066667l-17.066667-21.333333c-4.266667-4.266667-17.066667-4.266667-21.333333 0L746.666667 213.333333c-4.266667 4.266667-12.8 4.266667-21.333334 0-42.666667-29.866667-93.866667-42.666667-145.066666-42.666666-76.8 0-149.333333 34.133333-204.8 98.133333-55.466667 64-89.6 136.533333-128 209.066667-34.133333 76.8-72.533333 153.6-136.533334 230.4z m469.333334-499.2c42.666667 0 85.333333 12.8 119.466666 34.133333 8.533333 4.266667 8.533333 12.8 4.266667 17.066667L605.866667 384c-8.533333 12.8 8.533333 29.866667 21.333333 17.066667l106.666667-115.2c4.266667-4.266667 12.8-4.266667 17.066666 0l4.266667 4.266666c46.933333 55.466667 72.533333 132.266667 72.533333 209.066667 0 81.066667-25.6 153.6-72.533333 209.066667-81.066667 93.866667-192 145.066667-315.733333 145.066666-115.2 0-221.866667-46.933333-298.666667-123.733333-4.266667-4.266667-4.266667-12.8 0-17.066667 59.733333-76.8 98.133333-149.333333 136.533333-226.133333 38.4-59.733333 72.533333-128 123.733334-187.733333 46.933333-55.466667 110.933333-89.6 179.2-89.6z" fill="" p-id="3026"></path></svg>