<?xml version="1.0" standalone="no"?><!DOCTYPE svg PUBLIC "-//W3C//DTD SVG 1.1//EN" "http://www.w3.org/Graphics/SVG/1.1/DTD/svg11.dtd"><svg t="1583742149127" class="icon" viewBox="0 0 1108 1024" version="1.1" xmlns="http://www.w3.org/2000/svg" p-id="22006" xmlns:xlink="http://www.w3.org/1999/xlink" width="34.625" height="32"><defs><style type="text/css"></style></defs><path d="M 938.292 227.486 H 772.633 V 134.034 a 65.4371 65.4371 0 0 0 -65.2434 -65.2434 h -321.12 a 65.4371 65.4371 0 0 0 -65.2434 65.2434 v 93.4515 H 155.367 a 65.4371 65.4371 0 0 0 -65.2434 65.2434 v 554.569 a 65.4371 65.4371 0 0 0 65.2434 65.2434 h 782.921 a 65.4371 65.4371 0 0 0 65.2434 -65.2434 v -554.569 a 65.4371 65.4371 0 0 0 -65.2434 -65.2434 Z M 386.269 134.147 a 1.16215 1.16215 0 0 1 0.112137 -0.112137 h 320.896 l 0.112137 0.112137 v 93.339 h -321.12 Z m 338.45 158.582 h 213.458 l 0.112137 0.112137 v 554.335 l -0.112137 0.122332 H 155.48 l -0.112137 -0.122332 V 292.842 l 0.112137 -0.112137 h 569.27 Z" p-id="22007"></path><path d="M 648.772 357.463 H 444.886 v 110.608 H 334.278 v 203.886 H 444.886 v 110.608 h 203.886 v -110.608 h 110.608 v -203.886 H 648.772 Z m 45.3646 175.851 v 73.3988 H 583.528 v 110.608 h -73.3988 v -110.608 H 399.522 v -73.3988 H 510.13 v -110.608 h 73.3988 v 110.608 h 110.608 Z" p-id="22008"></path></svg>