<?xml version="1.0" standalone="no"?><!DOCTYPE svg PUBLIC "-//W3C//DTD SVG 1.1//EN" "http://www.w3.org/Graphics/SVG/1.1/DTD/svg11.dtd"><svg t="1583741748048" class="icon" viewBox="0 0 1024 1024" version="1.1" xmlns="http://www.w3.org/2000/svg" p-id="12270" xmlns:xlink="http://www.w3.org/1999/xlink" width="32" height="32"><defs><style type="text/css"></style></defs><path d="M957.999 511.814l0.132-30.125-1.149 0.005c-3.168-47.29-13.762-93.407-31.627-137.473-22.439-55.348-55.397-104.996-97.958-147.564-42.562-42.568-92.204-75.534-147.548-97.983-44.063-17.872-90.179-28.474-137.468-31.65l0.005-1.148-30.043 0.126-0.306-0.002h-0.038c-34.826 0-69.127 3.98-102.564 11.862l-0.082 0.02c-1.692 0.399-3.382 0.808-5.069 1.227l-0.191 0.048c-1.651 0.411-3.301 0.831-4.948 1.261l-0.296 0.078c-1.61 0.422-3.219 0.852-4.824 1.292-0.141 0.038-0.281 0.078-0.421 0.117-1.566 0.431-3.13 0.869-4.691 1.317-0.176 0.051-0.351 0.103-0.527 0.153-1.522 0.439-3.042 0.884-4.561 1.339-0.224 0.067-0.448 0.137-0.673 0.205a431.44 431.44 0 0 0-4.414 1.354c-0.254 0.08-0.508 0.162-0.762 0.241-1.439 0.453-2.876 0.911-4.312 1.379-0.282 0.092-0.564 0.187-0.846 0.28-1.406 0.461-2.81 0.927-4.211 1.403-0.312 0.105-0.622 0.214-0.933 0.321-1.371 0.469-2.741 0.942-4.109 1.424-0.339 0.12-0.677 0.242-1.015 0.363-1.342 0.477-2.682 0.958-4.02 1.448-0.351 0.128-0.7 0.26-1.05 0.39-1.326 0.49-2.652 0.982-3.974 1.485-0.356 0.135-0.71 0.274-1.066 0.41a483.82 483.82 0 0 0-3.936 1.524c-0.365 0.144-0.729 0.291-1.094 0.436-1.063 0.422-2.128 0.84-3.189 1.271-0.234 0.095-0.466 0.193-0.699 0.289l-0.207 0.083c-0.32 0.131-0.638 0.266-0.958 0.398a466.056 466.056 0 0 0-3.995 1.659c-0.366 0.155-0.731 0.313-1.097 0.469a423.016 423.016 0 0 0-4.022 1.729c-0.351 0.153-0.699 0.31-1.049 0.464a470.904 470.904 0 0 0-4.036 1.794c-0.336 0.152-0.67 0.307-1.005 0.46-1.35 0.614-2.698 1.231-4.041 1.857-0.327 0.153-0.651 0.309-0.978 0.462-1.35 0.634-2.698 1.271-4.04 1.918-0.309 0.149-0.615 0.301-0.923 0.45a434.78 434.78 0 0 0-4.057 1.989c-0.294 0.146-0.585 0.296-0.879 0.442-1.36 0.68-2.718 1.365-4.071 2.059-0.273 0.14-0.545 0.284-0.818 0.425a465.105 465.105 0 0 0-4.087 2.131c-0.271 0.144-0.541 0.291-0.812 0.435a439.42 439.42 0 0 0-4.06 2.183c-0.262 0.143-0.522 0.289-0.784 0.432a454.999 454.999 0 0 0-4.054 2.245c-0.25 0.141-0.499 0.284-0.749 0.426a435.997 435.997 0 0 0-4.05 2.31c-0.247 0.143-0.492 0.289-0.739 0.432a427.662 427.662 0 0 0-4.026 2.363c-0.242 0.144-0.481 0.291-0.723 0.435-1.338 0.8-2.674 1.604-4.003 2.418-0.241 0.147-0.48 0.298-0.72 0.446a429.465 429.465 0 0 0-3.971 2.467c-0.237 0.149-0.472 0.302-0.709 0.452-1.318 0.833-2.634 1.67-3.943 2.518-0.239 0.155-0.476 0.313-0.715 0.468a436.58 436.58 0 0 0-3.903 2.562c-0.235 0.156-0.468 0.316-0.703 0.473a416.924 416.924 0 0 0-3.875 2.614c-0.24 0.164-0.478 0.331-0.717 0.496a433.26 433.26 0 0 0-3.822 2.648c-0.25 0.175-0.497 0.354-0.746 0.53a426.27 426.27 0 0 0-3.757 2.673c-0.255 0.184-0.508 0.372-0.762 0.556a422.184 422.184 0 0 0-3.704 2.706c-0.259 0.192-0.515 0.387-0.773 0.579a439.26 439.26 0 0 0-3.651 2.737c-0.282 0.214-0.561 0.433-0.843 0.647a463.82 463.82 0 0 0-3.546 2.729c-0.295 0.23-0.588 0.465-0.883 0.696a451.835 451.835 0 0 0-3.465 2.735c-0.325 0.26-0.646 0.524-0.97 0.785a428.794 428.794 0 0 0-3.34 2.705c-0.354 0.291-0.706 0.587-1.059 0.879-1.073 0.886-2.147 1.772-3.213 2.668-0.38 0.32-0.756 0.645-1.135 0.966-1.036 0.877-2.072 1.754-3.101 2.641-0.403 0.348-0.802 0.701-1.203 1.05-0.998 0.866-1.996 1.732-2.987 2.608-0.463 0.409-0.921 0.825-1.382 1.237-0.927 0.826-1.856 1.651-2.777 2.486-0.479 0.434-0.953 0.876-1.43 1.312-0.896 0.819-1.793 1.635-2.683 2.462-0.604 0.562-1.203 1.132-1.805 1.697-0.757 0.711-1.517 1.418-2.27 2.135-0.822 0.782-1.636 1.574-2.452 2.363-0.527 0.51-1.059 1.014-1.584 1.527a465.32 465.32 0 0 0-7.954 7.953c-0.326 0.334-0.647 0.673-0.972 1.008a463.964 463.964 0 0 0-2.924 3.033c-0.477 0.501-0.947 1.008-1.421 1.511-0.806 0.854-1.615 1.707-2.414 2.566-0.585 0.63-1.162 1.267-1.744 1.9-0.679 0.739-1.362 1.475-2.035 2.218-0.628 0.692-1.246 1.391-1.869 2.087-0.618 0.691-1.241 1.378-1.855 2.073-0.681 0.771-1.353 1.548-2.029 2.322-0.544 0.624-1.093 1.244-1.633 1.87-0.722 0.837-1.434 1.681-2.149 2.523-0.485 0.572-0.976 1.14-1.458 1.713-0.787 0.935-1.563 1.878-2.342 2.819-0.399 0.482-0.802 0.961-1.199 1.445-0.833 1.016-1.657 2.04-2.481 3.062-0.335 0.417-0.675 0.83-1.009 1.247-0.843 1.055-1.676 2.116-2.509 3.177-0.307 0.392-0.619 0.781-0.925 1.173-0.865 1.11-1.72 2.227-2.574 3.345-0.265 0.347-0.534 0.691-0.798 1.038a443.804 443.804 0 0 0-2.699 3.599c-0.203 0.273-0.409 0.543-0.611 0.816a471.275 471.275 0 0 0-2.717 3.718c-0.18 0.249-0.364 0.496-0.544 0.746a439.203 439.203 0 0 0-2.714 3.813c-0.162 0.229-0.326 0.457-0.488 0.687a461.258 461.258 0 0 0-2.733 3.943c-0.135 0.197-0.273 0.393-0.408 0.59a444.411 444.411 0 0 0-2.742 4.064l-0.342 0.507a469.914 469.914 0 0 0-2.725 4.149l-0.302 0.461a428.156 428.156 0 0 0-2.709 4.24l-0.258 0.405a425.89 425.89 0 0 0-2.684 4.32l-0.226 0.364a427.456 427.456 0 0 0-2.656 4.397l-0.194 0.322a432.568 432.568 0 0 0-2.617 4.457l-0.176 0.3a431.438 431.438 0 0 0-2.558 4.484l-0.178 0.312a458.927 458.927 0 0 0-2.5 4.512c-0.058 0.107-0.118 0.213-0.177 0.32-0.82 1.503-1.63 3.012-2.433 4.525l-0.185 0.344a450.645 450.645 0 0 0-2.359 4.521l-0.2 0.386a439.56 439.56 0 0 0-2.3 4.546l-0.197 0.391a444.05 444.05 0 0 0-2.228 4.544l-0.212 0.434a453.32 453.32 0 0 0-2.141 4.508c-0.08 0.17-0.162 0.34-0.241 0.51a443.36 443.36 0 0 0-2.061 4.482l-0.259 0.566a456.786 456.786 0 0 0-1.982 4.457l-0.278 0.628a450.128 450.128 0 0 0-1.889 4.394c-0.104 0.245-0.21 0.488-0.313 0.733a449.603 449.603 0 0 0-1.803 4.341c-0.092 0.225-0.188 0.448-0.28 0.673l-0.059 0.146c-0.103 0.254-0.21 0.506-0.313 0.76-0.466 1.148-0.919 2.299-1.375 3.45-0.103 0.259-0.207 0.516-0.309 0.775a438.463 438.463 0 0 0-1.628 4.201c-0.104 0.271-0.21 0.541-0.313 0.812a429.576 429.576 0 0 0-1.562 4.18l-0.317 0.853c-0.513 1.4-1.017 2.803-1.516 4.207l-0.296 0.828a441.62 441.62 0 0 0-1.484 4.279c-0.087 0.256-0.177 0.511-0.264 0.767-0.49 1.444-0.971 2.89-1.446 4.338-0.08 0.243-0.162 0.486-0.241 0.729a461.777 461.777 0 0 0-1.413 4.414l-0.209 0.66c-0.473 1.51-0.936 3.022-1.392 4.535l-0.166 0.544c-0.465 1.55-0.92 3.103-1.368 4.657l-0.128 0.44a447.245 447.245 0 0 0-1.344 4.785l-0.09 0.323a416.63 416.63 0 0 0-1.313 4.903l-0.059 0.222a434.129 434.129 0 0 0-1.28 5.021l-0.03 0.117c-8.134 32.714-12.508 66.278-13.063 100.371l-0.002 0.12a441.777 441.777 0 0 0-0.053 5.152l-0.002 0.2-0.002 0.524c-0.001 0.468-0.008 0.935-0.008 1.403l0.001 0.224-0.132 30.125 1.149-0.005c3.168 47.29 13.762 93.407 31.627 137.473 22.439 55.348 55.397 104.996 97.958 147.564 42.562 42.568 92.204 75.534 147.548 97.983 44.062 17.872 90.178 28.474 137.468 31.65l-0.005 1.148 30.043-0.126 0.306 0.002h0.038c33.03 0 65.589-3.581 97.385-10.674l0.032-0.007a453.59 453.59 0 0 0 10.287-2.424l0.236-0.06c1.637-0.407 3.273-0.824 4.906-1.25l0.33-0.087c1.597-0.418 3.193-0.845 4.786-1.281l0.474-0.132a443.51 443.51 0 0 0 4.639-1.302l0.572-0.166c1.511-0.436 3.021-0.878 4.528-1.33l0.667-0.203c1.474-0.445 2.947-0.895 4.417-1.355 0.257-0.08 0.513-0.163 0.77-0.244a476.79 476.79 0 0 0 4.3-1.375c0.289-0.094 0.577-0.191 0.865-0.286 1.401-0.46 2.8-0.924 4.197-1.399 0.31-0.105 0.62-0.214 0.93-0.32a477.28 477.28 0 0 0 4.118-1.427c0.331-0.117 0.66-0.237 0.991-0.354 1.348-0.479 2.694-0.962 4.039-1.454 0.354-0.129 0.706-0.263 1.06-0.393 1.322-0.488 2.643-0.979 3.961-1.48 0.362-0.137 0.724-0.279 1.086-0.417a446.31 446.31 0 0 0 3.921-1.519c0.365-0.144 0.729-0.291 1.094-0.436 1.063-0.422 2.128-0.84 3.189-1.271 0.234-0.095 0.466-0.193 0.699-0.289l0.207-0.083c0.32-0.131 0.638-0.266 0.958-0.398a466.056 466.056 0 0 0 3.995-1.659c0.366-0.155 0.731-0.313 1.097-0.469a423.016 423.016 0 0 0 4.022-1.729c0.351-0.153 0.699-0.31 1.049-0.464a470.904 470.904 0 0 0 4.036-1.794c0.336-0.152 0.67-0.307 1.005-0.46 1.35-0.614 2.698-1.231 4.041-1.857 0.327-0.153 0.651-0.309 0.978-0.462 1.35-0.634 2.698-1.271 4.04-1.918 0.309-0.149 0.615-0.301 0.923-0.45a434.78 434.78 0 0 0 4.057-1.989c0.294-0.146 0.585-0.296 0.879-0.442a456.08 456.08 0 0 0 4.071-2.059c0.272-0.139 0.542-0.282 0.813-0.422a440.875 440.875 0 0 0 4.093-2.135c0.267-0.141 0.532-0.286 0.799-0.428a441.982 441.982 0 0 0 4.072-2.189c0.262-0.143 0.522-0.289 0.784-0.432a454.999 454.999 0 0 0 4.054-2.245c0.25-0.141 0.499-0.284 0.749-0.426a435.997 435.997 0 0 0 4.05-2.31c0.247-0.143 0.492-0.289 0.739-0.432a427.662 427.662 0 0 0 4.026-2.363c0.242-0.144 0.481-0.291 0.723-0.435 1.338-0.8 2.674-1.604 4.003-2.418 0.241-0.147 0.48-0.298 0.72-0.446a429.465 429.465 0 0 0 3.971-2.467c0.237-0.149 0.472-0.302 0.709-0.452 1.318-0.833 2.634-1.67 3.943-2.518 0.239-0.155 0.476-0.313 0.715-0.468a436.58 436.58 0 0 0 3.903-2.562c0.235-0.156 0.468-0.316 0.703-0.473a416.924 416.924 0 0 0 3.875-2.614c0.24-0.164 0.478-0.331 0.717-0.496a433.26 433.26 0 0 0 3.822-2.648c0.25-0.175 0.497-0.354 0.746-0.53a426.27 426.27 0 0 0 3.757-2.673c0.255-0.184 0.508-0.372 0.762-0.556a422.184 422.184 0 0 0 3.704-2.706c0.259-0.192 0.515-0.387 0.773-0.579a439.26 439.26 0 0 0 3.651-2.737c0.282-0.214 0.561-0.433 0.843-0.647a463.82 463.82 0 0 0 3.546-2.729c0.295-0.23 0.588-0.465 0.883-0.696a428.571 428.571 0 0 0 3.465-2.736c0.32-0.256 0.637-0.517 0.956-0.773a437.417 437.417 0 0 0 3.356-2.718c0.339-0.278 0.674-0.561 1.012-0.84a461.948 461.948 0 0 0 3.257-2.705c0.38-0.32 0.756-0.645 1.135-0.966 1.036-0.877 2.072-1.754 3.101-2.641 0.403-0.348 0.802-0.701 1.203-1.05 0.998-0.866 1.996-1.732 2.987-2.608 0.463-0.409 0.921-0.825 1.382-1.237 0.927-0.826 1.856-1.651 2.777-2.486 0.479-0.434 0.953-0.876 1.43-1.312 0.896-0.819 1.793-1.635 2.683-2.462 0.604-0.562 1.203-1.132 1.805-1.697 0.757-0.711 1.517-1.418 2.27-2.135 0.822-0.782 1.636-1.574 2.452-2.363 0.527-0.51 1.059-1.014 1.584-1.527a465.32 465.32 0 0 0 7.954-7.953c0.326-0.334 0.647-0.673 0.972-1.008a463.964 463.964 0 0 0 2.924-3.033c0.477-0.501 0.947-1.008 1.421-1.511 0.806-0.854 1.615-1.707 2.414-2.566 0.585-0.63 1.162-1.267 1.744-1.9 0.679-0.739 1.362-1.475 2.035-2.218 0.628-0.692 1.246-1.391 1.869-2.087 0.618-0.691 1.241-1.378 1.855-2.073 0.681-0.771 1.353-1.548 2.029-2.322 0.544-0.624 1.093-1.244 1.633-1.87 0.722-0.837 1.434-1.681 2.149-2.523 0.485-0.572 0.976-1.14 1.458-1.713 0.787-0.935 1.563-1.878 2.342-2.819 0.399-0.482 0.802-0.961 1.199-1.445 0.833-1.016 1.657-2.04 2.481-3.062 0.335-0.417 0.675-0.83 1.009-1.247 0.843-1.055 1.676-2.116 2.509-3.177 0.307-0.392 0.619-0.781 0.925-1.173 0.865-1.11 1.72-2.227 2.574-3.345 0.265-0.347 0.534-0.691 0.798-1.038a443.804 443.804 0 0 0 2.699-3.599c0.203-0.273 0.409-0.543 0.611-0.816a471.275 471.275 0 0 0 2.717-3.718c0.18-0.249 0.364-0.496 0.544-0.746a439.203 439.203 0 0 0 2.714-3.813c0.162-0.229 0.326-0.457 0.488-0.687a461.258 461.258 0 0 0 2.733-3.943c0.135-0.197 0.273-0.393 0.408-0.59a444.411 444.411 0 0 0 2.742-4.064l0.342-0.507a469.914 469.914 0 0 0 2.725-4.149l0.302-0.461a428.156 428.156 0 0 0 2.709-4.24l0.258-0.405a425.89 425.89 0 0 0 2.684-4.32l0.226-0.364c0.895-1.46 1.779-2.927 2.656-4.397l0.194-0.322c0.882-1.48 1.753-2.967 2.617-4.457l0.176-0.3a431.438 431.438 0 0 0 2.558-4.484l0.178-0.312a458.927 458.927 0 0 0 2.5-4.512c0.058-0.107 0.118-0.213 0.177-0.32 0.82-1.503 1.63-3.012 2.433-4.525l0.185-0.344c0.795-1.502 1.581-3.01 2.359-4.521l0.2-0.386a439.56 439.56 0 0 0 2.3-4.546l0.197-0.391a444.05 444.05 0 0 0 2.228-4.544l0.212-0.434a453.32 453.32 0 0 0 2.141-4.508c0.08-0.17 0.162-0.34 0.241-0.51a443.36 443.36 0 0 0 2.061-4.482l0.259-0.566a456.786 456.786 0 0 0 1.982-4.457l0.278-0.628c0.638-1.46 1.266-2.926 1.889-4.394 0.104-0.245 0.21-0.488 0.313-0.733 0.609-1.442 1.208-2.89 1.803-4.341 0.092-0.225 0.188-0.448 0.28-0.673l0.059-0.146c0.103-0.254 0.21-0.506 0.313-0.76 0.466-1.148 0.919-2.299 1.375-3.45 0.103-0.259 0.207-0.516 0.309-0.775a438.463 438.463 0 0 0 1.628-4.201c0.104-0.271 0.21-0.541 0.313-0.812a429.576 429.576 0 0 0 1.562-4.18l0.317-0.853c0.513-1.4 1.017-2.803 1.516-4.207l0.296-0.828a441.62 441.62 0 0 0 1.484-4.279c0.087-0.256 0.177-0.511 0.264-0.767 0.49-1.444 0.971-2.89 1.446-4.338 0.08-0.243 0.162-0.486 0.241-0.729 0.479-1.469 0.949-2.941 1.413-4.414l0.209-0.66c0.473-1.51 0.936-3.022 1.392-4.535l0.166-0.544c0.465-1.55 0.92-3.103 1.368-4.657l0.128-0.44c0.457-1.593 0.905-3.188 1.344-4.785l0.09-0.323a416.63 416.63 0 0 0 1.313-4.903l0.059-0.222c0.437-1.671 0.863-3.345 1.28-5.021l0.03-0.117c8.134-32.714 12.508-66.278 13.063-100.371l0.002-0.12c0.028-1.716 0.045-3.433 0.053-5.152l0.002-0.2 0.002-0.524c0.001-0.468 0.008-0.935 0.008-1.403l-0.002-0.226zM820.187 737.837a382.021 382.021 0 0 1-5.112 6.785 380.723 380.723 0 0 1-4.958 6.3l-0.111 0.137a386.377 386.377 0 0 1-10.276 12.228c-0.217 0.248-0.432 0.496-0.65 0.743a384.711 384.711 0 0 1-5.809 6.449 399.009 399.009 0 0 1-5.007 5.341c-0.266 0.278-0.535 0.554-0.802 0.831a392.457 392.457 0 0 1-5.267 5.381l-0.104 0.106-0.104 0.103a392.301 392.301 0 0 1-5.381 5.265c-0.278 0.268-0.555 0.538-0.834 0.804a386.494 386.494 0 0 1-5.34 5.004l-0.966 0.887a390.85 390.85 0 0 1-5.489 4.926c-0.243 0.214-0.487 0.426-0.731 0.639a386.42 386.42 0 0 1-12.27 10.307l-0.091 0.074a386.507 386.507 0 0 1-6.349 4.994l-0.289 0.223a385.698 385.698 0 0 1-6.501 4.89l-0.014 0.01c-55.677 40.938-121.09 65.793-190.368 72.121 8.114-88.679 46.587-171.02 110.287-234.708 63.698-63.689 146.046-102.147 234.727-110.247-6.338 69.256-31.192 134.646-72.117 190.305l-0.074 0.102zM476.635 131.615c-8.114 88.679-46.587 171.02-110.287 234.708C302.65 430.012 220.302 468.47 131.621 476.57c6.338-69.256 31.192-134.646 72.117-190.305l0.075-0.103a382.021 382.021 0 0 1 5.112-6.785 380.723 380.723 0 0 1 4.958-6.3l0.111-0.137a386.377 386.377 0 0 1 10.276-12.228c0.217-0.248 0.432-0.496 0.65-0.743a384.711 384.711 0 0 1 5.809-6.449 399.009 399.009 0 0 1 5.007-5.341c0.266-0.278 0.535-0.554 0.802-0.831a392.457 392.457 0 0 1 5.267-5.381l0.104-0.106 0.104-0.103a392.301 392.301 0 0 1 5.381-5.265c0.278-0.268 0.555-0.538 0.834-0.804a386.195 386.195 0 0 1 5.338-5.002l0.969-0.89a384.71 384.71 0 0 1 5.485-4.922c0.245-0.216 0.492-0.429 0.738-0.645a386.454 386.454 0 0 1 12.249-10.29l0.115-0.094a393.675 393.675 0 0 1 6.327-4.977l0.315-0.243a385.971 385.971 0 0 1 6.469-4.866l0.062-0.045c55.67-40.924 121.073-65.773 190.34-72.1zM241.862 782.092c-65.298-65.308-104.037-150.094-110.795-241.253 46.053-3.552 90.953-14.16 133.875-31.67 54.987-22.432 104.33-55.265 146.657-97.586 42.329-42.321 75.17-91.658 97.611-146.642 17.518-42.918 28.134-87.816 31.693-133.869 91.158 6.775 175.937 45.528 241.234 110.836h0.001c65.298 65.308 104.037 150.094 110.795 241.253-46.053 3.552-90.953 14.16-133.875 31.67-54.987 22.432-104.33 55.265-146.657 97.586-42.329 42.321-75.17 91.658-97.611 146.642-17.518 42.918-28.134 87.816-31.693 133.869-91.159-6.774-175.937-45.528-241.235-110.836z" fill="#1A1A1C" p-id="12271"></path></svg>