<?xml version="1.0" standalone="no"?><!DOCTYPE svg PUBLIC "-//W3C//DTD SVG 1.1//EN" "http://www.w3.org/Graphics/SVG/1.1/DTD/svg11.dtd"><svg t="1583742351450" class="icon" viewBox="0 0 1024 1024" version="1.1" xmlns="http://www.w3.org/2000/svg" p-id="28572" xmlns:xlink="http://www.w3.org/1999/xlink" width="32" height="32"><defs><style type="text/css"></style></defs><path d="M512.64 379.392 457.472 346.816 359.936 512 351.04 512 233.728 351.552 182.016 389.312 271.744 512 192 512 192 576 320 576 320 640 192 640 192 704 320 704 320 768 384 768 384 704 512 704 512 640 384 640 384 576 512 576 512 512 434.304 512Z" p-id="28573"></path><path d="M896 192 128 192C57.408 192 0 249.408 0 320l0 448c0 70.592 57.408 128 128 128l768 0c70.592 0 128-57.408 128-128l0-32.64 0-64-64-5.248c-50.112-17.344-86.4-64.576-86.4-120.512 0-55.936 36.224-103.104 86.4-120.448l64-5.312 0-64L1024 320C1024 249.408 966.592 192 896 192zM128 832c-35.264 0-64-28.672-64-64L64 320c0-35.264 28.736-64 64-64l512 0 0 576L128 832zM960 358.464c-85.888 19.072-150.4 95.616-150.4 187.136 0 91.584 64.512 168.064 150.4 187.2L960 768c0 35.328-28.672 64-64 64l-192 0L704 256l192 0c35.328 0 64 28.736 64 64L960 358.464z" p-id="28574"></path></svg>