<?xml version="1.0" standalone="no"?><!DOCTYPE svg PUBLIC "-//W3C//DTD SVG 1.1//EN" "http://www.w3.org/Graphics/SVG/1.1/DTD/svg11.dtd"><svg t="1583741985153" class="icon" viewBox="0 0 1732 1024" version="1.1" xmlns="http://www.w3.org/2000/svg" p-id="19106" xmlns:xlink="http://www.w3.org/1999/xlink" width="54.125" height="32"><defs><style type="text/css"></style></defs><path d="M1062.010346 182.949945l-41.066054-18.68884 26.058745-36.852013c8.423104-12.107746 5.265373-21.31966 3.420253-24.743646-3.684641-7.104895-11.055169-11.055169-20.533338-11.055169h-3.420253l-44.750696 4.212175 4.212175-44.750696c1.052577-10.529502-2.369542-16.583064-5.527274-20.002695-7.104895-7.897438-19.216995-8.423104-30.271541-0.528155l-36.852013 26.058745-18.953229-41.066054c-6.318572-13.950999-16.583064-15.529865-20.533338-15.529864s-14.214144 1.580732-20.533338 15.529864l-18.953228 40.802288-36.852014-26.058745c-11.055169-7.633671-23.164158-7.104895-30.271541 0.528155-3.156487 3.420253-6.581716 9.475059-5.527273 20.002695l4.212174 44.750695-44.750696-3.94903h-3.420253c-9.475059 0-17.110597 3.94903-20.533338 11.055169-1.843254 3.420253-5.002229 12.898422 3.420253 24.743646l26.058745 36.588247-41.066054 18.953228c-13.950999 6.581716-15.529865 16.583064-15.529865 20.533338s1.580732 14.214144 15.529865 20.796483l41.066054 18.68884-26.058745 36.852013c-8.423104 12.107746-5.265373 21.31966-3.420253 24.743646 3.684641 7.104895 11.055169 11.055169 20.533338 11.055169 0.528155 0 3.156487 0 3.420253-0.263144l44.750696-4.212175-4.212174 45.016328c-1.052577 10.529502 2.633931 16.583064 5.527273 20.002695 7.104895 7.897438 19.216995 8.423104 30.271541 0.528155l36.588247-26.321267 18.953229 41.066054c6.318572 13.950999 16.583064 15.529865 20.533338 15.529865 4.212174 0 14.214144-1.580732 20.533338-15.529865l18.953228-40.802288 36.852014 26.058745c11.055169 7.897438 23.164158 7.104895 30.271541-0.528154 3.156487-3.420253 6.581716-9.738825 5.527273-20.002695l-4.212174-44.750696 45.016328 4.212174c0.528155 0 3.156487 0.263144 3.420253 0.263145 9.475059 0 17.110597-3.94903 20.533338-11.055169 1.843254-3.420253 5.002229-12.898422-3.420253-24.743646l-26.058745-36.852014 41.066054-18.953228c13.950999-6.318572 15.529865-16.583064 15.529865-20.533338-0.263144-4.212174-1.580732-14.478532-15.529865-20.796482z m-64.228968 42.117387c-4.737218 1.580732-8.161826 5.002229-8.949393 10.002592-1.052577 3.94903 0.263144 8.685626 2.897075 12.107745l29.480242 41.852377-51.594312-4.737219c-4.212174-0.528155-8.949393 1.315721-11.846467 4.212174-2.633931 2.633931-3.94903 8.161826-3.420253 11.846468l4.474696 50.803635-42.381153-30.008397c-3.156487-2.369542-7.897438-2.897075-11.846468-2.105776-4.474696 1.052577-8.161826 4.212174-9.475059 8.685626l-21.583426 46.330805-21.319661-46.593327c-1.315721-3.94903-5.527273-7.104895-9.212536-8.423104-1.052577-0.263144-2.369542-0.528155-3.684642-0.528155-3.156487 0-6.581716 1.315721-8.949392 3.420253l-41.852377 30.008397 5.002229-52.3825c0.528155-3.94903-1.580732-8.685626-4.212174-11.318313-2.897075-2.897075-8.161826-3.684641-12.107745-3.684642l-50.803636 4.474697 30.271542-42.646164c2.369542-3.156487 2.897075-8.423104 1.580731-12.37089-1.315721-4.212174-4.474696-7.369283-8.423104-8.685626l-46.330805-21.583427L750.614284 182.161135c4.212174-1.580732 7.369283-6.053562 8.423104-10.529502 0.790055-3.684641-0.790055-8.161826-3.156487-11.318313l-29.480242-41.852377 51.594312 4.737219c3.94903 0.790055 8.161826-1.052577 11.055169-3.684642 3.156487-2.897075 4.474696-8.423104 4.212174-12.634656l-4.737219-50.803635 41.587988 29.480242c3.420253 3.156487 9.212537 3.684641 13.426577 2.369543 3.684641-1.052577 7.104895-5.002229 8.685627-8.423104l21.583426-46.065795 21.583427 46.593327c1.580732 3.94903 5.789173 7.369283 10.002592 8.423104 3.94903 1.052577 8.685626-0.528155 12.107745-2.897075l41.852376-29.744008-5.002229 52.3825c-0.528155 4.212174 0.263144 7.369283 3.420253 10.264492 3.156487 3.94903 8.161826 5.527273 12.898423 4.474696l50.803635-4.474696-29.744009 41.852376c-2.633931 3.156487-3.156487 8.161826-2.369542 12.107746 0.790055 3.94903 5.002229 7.897438 8.685626 9.738825l46.330805 21.583427-46.593327 21.31966z" fill="#8a8a8a" p-id="19107"></path><path d="M873.798138 96.874406c-58.699829 0-106.608255 47.908426-106.608255 106.608255s47.908426 106.608255 106.608255 106.608255c58.699829 0 106.608255-47.908426 106.608255-106.608255 0-58.699829-47.908426-106.608255-106.608255-106.608255z m0 187.421532c-44.486307 0-80.548888-36.061959-80.548888-80.548888s36.061959-80.548888 80.548888-80.548888c44.486307 0 80.548888 36.061959 80.548888 80.548888s-36.061959 80.548888-80.548888 80.548888zM1032.003815 993.177909l-300.875269 0.528154 101.34537-195.055202c14.478532-14.214144 37.642068-18.163174 56.067142-8.685626 18.953228 9.738825 29.218964 31.061596 25.005546 52.119978-1.052577 5.527273 1.580732 11.318313 6.844861 13.950999 5.265373 2.633931 11.318313 1.580732 15.529865-2.63393 14.478532-15.006065 38.431501-18.953228 57.120963-9.475059 17.635641 9.212537 27.901377 27.901377 25.798089 47.908426-0.790055 7.104895 4.212174 13.426577 11.055169 14.214144h1.843254c6.318572 0 11.846468-4.474696 12.898422-10.792647 17.899407-103.449902-29.218964-208.218636-117.926568-263.230712-0.263144-1.843254-0.528155-3.420253-1.052577-5.265373-1.843254-6.053562-6.053562-10.792646-11.582701-13.687855-7.104895-3.684641-16.31992-3.156487-22.901636 0.528154-31.850407-13.687855-65.808456-20.533338-100.553449-20.533338-70.020008 0-137.934862 28.955198-186.368954 79.498177-0.528155 0.528155-1.052577 1.052577-1.315722 1.580732-3.420253 5.265373-2.897075 12.37089 1.843254 16.847453 5.265373 5.002229 13.426577 4.737218 18.426318-0.528155 14.478532-15.006065 38.167735-19.216995 57.120963-9.475059 18.953228 9.738825 29.218964 31.061596 25.005546 52.119978-1.052577 5.527273 1.580732 11.318313 6.844861 13.951 5.265373 2.633931 11.318313 1.580732 15.529865-2.633931 14.478532-15.006065 38.431501-18.953228 57.120963-9.475059 18.426318 9.738825 28.693298 30.535308 25.005546 50.803635l-107.66332 206.639148-166.362527 0.528155v-1.052577c-6.581716-275.339702-102.659225-451.178532-144.515956-527.779012-1.315721-2.105776-2.105776-4.212174-3.420253-6.053562 27.63761 6.581716 63.44078 18.426318 91.340912 36.588247 20.796482 10.529502 38.694645 24.482368 54.225754 36.852014 23.164158 18.163174 43.43062 33.958049 65.808456 33.958049 9.475059 0 18.953228-2.897075 26.321267-7.897438 16.056153-7.633671 23.953591-22.374104 21.583427-40.272889-5.265373-40.010989-65.018401-96.60753-132.670733-109.240319-18.426318-5.789173-38.431501-8.685626-59.753649-8.685626-14.214144 0-28.693298 1.580732-42.646164 3.684641 23.953591-17.110597 53.437566-34.482471 83.445341-44.486307 25.005546-11.318313 50.803635-17.635641 73.705893-23.164158 43.960641-10.529502 85.287973-20.533338 88.972614-63.702058 3.156487-13.687855 0.528155-26.058745-7.369283-35.799436-11.582701-14.478532-33.429272-22.110959-62.913247-22.11096-50.012958 0-106.871399 21.31966-143.724657 53.437566-27.901377 18.953228-50.277347 44.750695-67.387321 71.335729 4.737218-12.634656 10.264492-25.269312 16.847453-37.114536 9.475059-21.31966 22.637248-39.747222 33.958049-56.067142 22.637248-32.115417 43.960641-62.648236 21.31966-93.182922-7.104895-13.164055-18.953228-20.533338-33.16675-20.533338-44.486307 0-101.609136 72.125784-110.556041 138.724295-9.212537 35.00876-6.581716 71.335729 0 102.134803-23.953591-20.533338-54.487654-39.747222-88.445703-48.172193-20.26895-7.633671-43.696252-11.582701-67.651088-11.582701-50.277347 0-95.026798 17.372497-108.450264 42.11552-6.844861 12.37089-6.053562 26.321267 1.315721 37.379546 12.898422 27.112566 37.642068 30.271541 55.543964 30.271542 11.582701 0 24.218602-1.580732 37.642068-3.156487 15.793631-1.843254 32.115417-3.684641 49.489158-3.684642 5.265373 0 10.529502 0.263144 17.372497 0.528155h5.527273c11.055169 0 22.637248 1.315721 33.958049 2.897075-35.535048 2.633931-67.387321 10.792646-93.711699 24.482368C71.727024 472.268641 14.870449 548.34221 16.975603 594.668661c0.790055 20.002695 12.37089 34.482471 29.744009 39.485944 7.897438 3.420253 15.529865 5.002229 23.164158 5.002229 29.480242 0 51.594312-24.218602 76.863002-52.3825 15.793631-17.372497 33.429272-37.114536 56.594675-54.487655 22.374104-21.060249 51.330546-38.167735 77.128635-51.068023-19.216995 25.269312-37.114536 56.858441-43.696253 90.815245-18.163174 56.858441-5.002229 123.98324 18.426318 155.831781 13.426577 18.426318 27.63761 22.374104 37.114536 22.374103 7.897438 0 15.529865-2.633931 21.31966-6.84486 35.275636-18.953228 28.955198-55.543964 22.637248-94.236121-3.156487-19.740795-7.104895-42.11552-6.581716-66.861655-2.897075-35.275636 4.737218-73.442749 12.370889-100.294037 1.315721 2.369542 2.369542 4.474696 3.684642 6.84486 40.010989 72.915839 136.091608 240.592842 142.673324 503.037233H33.025535c-10.264492 0-16.056153 5.789173-16.056153 16.056153s5.789173 16.056153 16.056153 16.056154h999.752783c10.264492 0 16.056153-5.789173 16.056153-16.056154s-6.581716-14.742921-16.847452-14.74292z m-235.85749-280.604453c-20.26895-10.529502-45.27574-10.792646-65.544689-1.315722-3.94903-22.110959-18.163174-41.852376-38.694646-52.646267-6.053562-3.156487-12.634656-5.527273-19.216995-6.84486 64.228346-37.642068 146.882388-42.381153 215.588541-10.264492 3.420253 1.580732 7.369283 1.580732 11.055169 0v0.528155c0.790055 3.420253 3.156487 6.581716 6.318572 8.423104 66.861655 38.431501 109.240319 107.399554 115.55827 182.155536-4.737218-4.474696-10.264492-8.423104-16.31992-11.582701-10.529502-5.527273-22.374104-8.423104-34.219327-8.423105-10.792646 0-21.583427 2.369542-31.32474 6.844861-3.94903-22.110959-18.163174-41.852376-38.958412-52.646267-20.26895-10.529502-45.27574-10.792646-65.544689-1.580731-3.94903-22.110959-17.899407-41.852376-38.694646-52.646267zM507.643812 434.074156c59.49175 11.318313 109.766608 60.806227 113.190593 87.394371 0.790055 6.581716-1.052577 10.529502-8.685626 14.214144-4.737218 2.897075-8.949393 4.474696-13.426577 4.474696-13.426577 0-30.271541-13.164055-49.751058-28.165765-16.583064-12.898422-35.535048-27.901377-57.385352-38.694646-30.271541-19.740795-67.126665-32.115417-96.607529-39.220311 31.32474-8.161826 75.019126-11.582701 112.663683 0z m-48.434715-145.567288c38.167735-33.16675 91.867823-47.908426 127.932892-47.908427 20.533338 0 36.325725 4.474696 42.646164 12.37089 1.843254 2.369542 3.94903 6.053562 2.105776 15.529865-2.369542 25.005546-25.269312 31.850407-69.492475 42.381153-23.953591 5.789173-51.068024 12.37089-77.128635 24.218602-40.802288 13.426577-82.655286 41.066054-112.137395 65.018401 14.742921-34.746238 41.587988-81.601465 86.075539-111.60924zM206.769165 390.904193h-5.002229c-25.798089-1.843254-50.012958 0.790055-70.546296 3.156486-12.634656 1.580732-24.482368 2.897075-34.482471 2.897075-20.533338 0-27.375088-5.789173-32.63984-16.847452-3.684641-5.789173-2.633931-9.475059-1.052577-12.107746 7.633671-14.214144 41.852376-28.693298 85.551739-28.693297 20.796482 0 41.066054 3.420253 60.016794 10.529502 39.485944 9.738825 72.38955 35.535048 94.236121 57.648496-29.218964-8.949393-65.544689-16.583064-96.081241-16.583064z m-21.057138 122.139364c-23.953591 17.899407-42.646164 38.694645-59.229228 57.120963-22.110959 24.482368-39.485944 43.696252-57.385351 43.696252-4.212174 0-8.423104-1.052577-14.478532-3.420253-8.423104-2.369542-12.107746-7.104895-12.634657-16.056153-1.315721-32.115417 47.118994-100.294037 115.55827-126.350294 29.744009-15.529865 65.808456-23.426058 106.608255-23.426059 11.318313 0 21.583427 0.528155 31.061596 1.580732-33.958049 14.214144-77.916823 37.114536-109.504708 66.861655z m116.873991 71.072584c-0.790055 25.798089 3.420253 49.489158 6.84486 70.283152 6.844861 41.329198 7.897438 57.648496-10.529502 67.912988-2.633931 1.843254-5.265373 2.897075-7.369283 2.897075-4.737218 0-10.529502-4.212174-16.056153-11.582701-18.953228-26.058745-30.008397-84.234151-14.214144-133.986454 7.633671-40.010989 31.850407-74.23156 52.909411-97.13133-7.897438 29.744009-14.214144 68.17551-11.582701 101.609137z m32.90485-195.319591c-8.949393-30.008397-16.056153-71.598873-5.265374-112.663683 8.685626-62.648236 59.229228-117.926568 85.024829-117.926567 3.156487 0 6.844861 0.790055 11.055168 8.161826 11.582701 15.529865 3.420253 30.008397-20.796482 64.49149-12.107746 17.372497-26.058745 36.852014-35.799437 59.229228-16.847452 28.693298-28.165765 67.126665-34.219326 98.710195z m180.576048 585.955663h-10.264492c-6.053562-219.008794-98.185151-406.429081-148.461875-500.140157l13.426577-7.104895c51.857456 92.921644 154.51917 281.920796 145.304145 507.248162z" fill="#8a8a8a" p-id="19108"></path></svg>