<?xml version="1.0" standalone="no"?><!DOCTYPE svg PUBLIC "-//W3C//DTD SVG 1.1//EN" "http://www.w3.org/Graphics/SVG/1.1/DTD/svg11.dtd"><svg t="1583741655492" class="icon" viewBox="0 0 1024 1024" version="1.1" xmlns="http://www.w3.org/2000/svg" p-id="7528" xmlns:xlink="http://www.w3.org/1999/xlink" width="32" height="32"><defs><style type="text/css"></style></defs><path d="M612.266667 170.666667c-6.4-6.4-14.933333-8.533333-23.466667-4.266667l-151.466667 59.733333c-4.266667 2.133333-8.533333 4.266667-10.666666 8.533334L64 900.266667c-4.266667 8.533333-2.133333 19.2 4.266667 25.6l29.866666 29.866666c4.266667 4.266667 8.533333 6.4 14.933334 6.4 4.266667 0 6.4 0 10.666666-2.133333l663.466667-362.666667c4.266667-2.133333 8.533333-6.4 8.533333-10.666666l59.733334-151.466667c2.133333-8.533333 2.133333-17.066667-4.266667-23.466667L612.266667 170.666667z m147.2 392.533333l-349.866667 189.866667-81.066667-81.066667-29.866666 29.866667 72.533333 72.533333-253.866667 140.8-8.533333-8.533333 256-469.333334 34.133333 34.133334 29.866667-29.866667-42.666667-42.666667 42.666667-78.933333 91.733333 91.733333 29.866667-29.866666-100.266667-100.266667 10.666667-19.2 130.133333-53.333333 221.866667 221.866666-53.333333 132.266667zM970.666667 279.466667l-2.133334-42.666667-162.133333 10.666667 91.733333-91.733334-29.866666-29.866666-102.4 102.4 10.666666-170.666667-42.666666-4.266667-8.533334 140.8-38.4-38.4-29.866666 29.866667 181.333333 181.333333 29.866667-29.866666-49.066667-46.933334z" p-id="7529"></path></svg>